<svg width="216" height="29" viewBox="0 0 216 29" fill="none" xmlns="http://www.w3.org/2000/svg">
<path d="M8.15625 19.6094C8.15625 19.7344 8.07812 19.7969 7.92188 19.7969C7.73438 19.8281 7.64062 19.7656 7.64062 19.6094C7.64062 19.5156 7.71875 19.4688 7.875 19.4688C8.0625 19.4375 8.15625 19.4844 8.15625 19.6094ZM6.89062 19.6562C6.70312 19.625 6.625 19.5469 6.65625 19.4219C6.71875 19.2969 6.82812 19.2656 6.98438 19.3281C7.14062 19.3594 7.20312 19.4375 7.17188 19.5625C7.14062 19.6875 7.04688 19.7188 6.89062 19.6562ZM8.76562 19.3281C8.92188 19.3281 9 19.375 9 19.4688C9.03125 19.5625 8.96875 19.6406 8.8125 19.7031C8.65625 19.7344 8.5625 19.6875 8.53125 19.5625C8.53125 19.4375 8.60938 19.3594 8.76562 19.3281ZM11.8594 1.375C13.9844 1.375 15.9531 1.875 17.7656 2.875C19.5781 3.875 21 5.25 22.0312 7C23.0938 8.75 23.625 10.6875 23.625 12.8125C23.625 15.4062 22.8906 17.7344 21.4219 19.7969C19.9844 21.8281 18.0938 23.2344 15.75 24.0156C15.5 24.0781 15.2969 24.0469 15.1406 23.9219C15.0156 23.7969 14.9531 23.6406 14.9531 23.4531C14.9531 23.4219 14.9531 22.9219 14.9531 21.9531C14.9531 20.9531 14.9531 20.1406 14.9531 19.5156C14.9531 18.5156 14.6875 17.7969 14.1562 17.3594C14.8438 17.2656 15.375 17.1875 15.75 17.125C16.125 17.0625 16.5938 16.9219 17.1562 16.7031C17.7188 16.4844 18.1406 16.2031 18.4219 15.8594C18.7344 15.5156 19 15.0312 19.2188 14.4062C19.4375 13.7812 19.5469 13.0312 19.5469 12.1562C19.5469 11.5625 19.4531 11.0781 19.2656 10.7031C19.0781 10.3281 18.7656 9.90625 18.3281 9.4375C18.7031 8.46875 18.6719 7.40625 18.2344 6.25C17.9219 6.15625 17.5 6.21875 16.9688 6.4375C16.4375 6.625 15.9688 6.84375 15.5625 7.09375L15 7.51562C14.0312 7.23438 13.0312 7.09375 12 7.09375C11 7.09375 10.0312 7.23438 9.09375 7.51562C8.9375 7.39062 8.71875 7.25 8.4375 7.09375C8.15625 6.90625 7.71875 6.70313 7.125 6.48438C6.5625 6.23438 6.14062 6.15625 5.85938 6.25C5.39062 7.40625 5.34375 8.46875 5.71875 9.4375C5 10.2188 4.64062 11.125 4.64062 12.1562C4.64062 13.0312 4.75 13.7812 4.96875 14.4062C5.1875 15.0312 5.4375 15.5156 5.71875 15.8594C6 16.2031 6.40625 16.4844 6.9375 16.7031C7.46875 16.9219 7.92188 17.0781 8.29688 17.1719C8.70312 17.2344 9.23438 17.2969 9.89062 17.3594C9.48438 17.7344 9.23438 18.2656 9.14062 18.9531C8.82812 19.0781 8.5 19.1719 8.15625 19.2344C7.84375 19.2969 7.4375 19.2344 6.9375 19.0469C6.4375 18.8594 6.03125 18.5 5.71875 17.9688C5.53125 17.625 5.28125 17.3594 4.96875 17.1719C4.6875 16.9531 4.4375 16.8281 4.21875 16.7969L3.9375 16.75C3.25 16.75 3.21875 16.9844 3.84375 17.4531C4.0625 17.5781 4.28125 17.7812 4.5 18.0625C4.71875 18.3438 4.875 18.5938 4.96875 18.8125L5.15625 19.1875C5.28125 19.5625 5.5 19.875 5.8125 20.125C6.125 20.375 6.46875 20.5312 6.84375 20.5938C7.21875 20.6562 7.57812 20.6875 7.92188 20.6875C8.26562 20.6875 8.54688 20.6719 8.76562 20.6406L9.09375 20.5938C9.09375 20.9688 9.09375 21.5312 9.09375 22.2812C9.125 23.0312 9.14062 23.4219 9.14062 23.4531C9.14062 23.6406 9.0625 23.7969 8.90625 23.9219C8.78125 24.0469 8.59375 24.0781 8.34375 24.0156C5.96875 23.2344 4.04688 21.8281 2.57812 19.7969C1.10938 17.7344 0.375 15.4062 0.375 12.8125C0.375 9.5625 1.46875 6.84375 3.65625 4.65625C5.875 2.46875 8.60938 1.375 11.8594 1.375ZM4.92188 17.5469C4.98438 17.4844 5.0625 17.5 5.15625 17.5938C5.25 17.6875 5.26562 17.7656 5.20312 17.8281C5.14062 17.8906 5.0625 17.875 4.96875 17.7812C4.875 17.6875 4.85938 17.6094 4.92188 17.5469ZM4.40625 17.1719C4.46875 17.1094 4.54688 17.0938 4.64062 17.125C4.73438 17.1875 4.76562 17.25 4.73438 17.3125C4.70312 17.4062 4.64062 17.4219 4.54688 17.3594C4.42188 17.2969 4.375 17.2344 4.40625 17.1719ZM5.95312 18.8125C6.01562 18.7188 6.10938 18.7344 6.23438 18.8594C6.35938 18.9844 6.39062 19.0938 6.32812 19.1875C6.23438 19.2812 6.125 19.2656 6 19.1406C5.875 19.0156 5.85938 18.9062 5.95312 18.8125ZM5.39062 18.1562C5.48438 18.0625 5.57812 18.0938 5.67188 18.25C5.76562 18.375 5.76562 18.4688 5.67188 18.5312C5.57812 18.5938 5.48438 18.5625 5.39062 18.4375C5.32812 18.2812 5.32812 18.1875 5.39062 18.1562Z" fill="#B2B2B2"/>
<path d="M74.875 14.1094C76.375 13.3906 77.125 12.25 77.125 10.6875C77.125 9.125 76.6094 8.01562 75.5781 7.35938C74.7031 6.79688 73.4531 6.51562 71.8281 6.51562H64V23.1562H72.0625C73.7188 23.1562 75.0625 22.7656 76.0938 21.9844C77.3125 21.1406 77.9219 19.9219 77.9219 18.3281C77.9219 17.2656 77.6562 16.375 77.125 15.6562C76.625 14.9062 75.875 14.3906 74.875 14.1094ZM67.6562 9.375H71.0781C72.7344 9.375 73.5625 10 73.5625 11.25C73.5625 11.9375 73.3594 12.4531 72.9531 12.7969C72.5781 13.1094 72.0469 13.2656 71.3594 13.2656H67.6562V9.375ZM71.5469 20.3438H67.6562V15.75H71.6406C73.3906 15.75 74.2656 16.5469 74.2656 18.1406C74.2656 19.6094 73.3594 20.3438 71.5469 20.3438ZM88.375 9.04688H81.625V7.40625H88.375V9.04688ZM91 17.2969C91 15.4531 90.5 13.9219 89.5 12.7031C88.4062 11.4219 86.9531 10.7812 85.1406 10.7812C83.9531 10.7812 82.8906 11.0625 81.9531 11.625C81.0156 12.1875 80.2812 12.9531 79.75 13.9219C79.25 14.8906 79 15.9688 79 17.1562C79 19.0312 79.5469 20.5469 80.6406 21.7031C81.7656 22.8594 83.2656 23.4375 85.1406 23.4375C88.0156 23.4375 89.8906 22.0938 90.7656 19.4062H87.8594C87.7031 19.9062 87.3594 20.2969 86.8281 20.5781C86.3281 20.8594 85.7969 21 85.2344 21C84.2969 21 83.5625 20.7344 83.0312 20.2031C82.5312 19.6719 82.2812 18.9062 82.2812 17.9062H90.9531L91 17.2969ZM82.2812 15.8438C82.3438 15.0625 82.625 14.4375 83.125 13.9688C83.625 13.5 84.2656 13.2656 85.0469 13.2656C85.8594 13.2656 86.4844 13.5 86.9219 13.9688C87.3594 14.4062 87.6094 15.0312 87.6719 15.8438H82.2812Z" fill="#B2B2B2"/>
<path d="M135.688 23.5H131.328V9.48438H135.688V23.5ZM133.531 7.5625C132.844 7.5625 132.25 7.3125 131.75 6.8125C131.25 6.3125 131 5.71875 131 5.03125C131 4.34375 131.25 3.75 131.75 3.25C132.25 2.75 132.844 2.5 133.531 2.5C134.219 2.5 134.812 2.75 135.312 3.25C135.812 3.75 136.062 4.34375 136.062 5.03125C136.062 5.71875 135.812 6.3125 135.312 6.8125C134.812 7.3125 134.219 7.5625 133.531 7.5625ZM152 23.5H147.641V16.6562C147.641 15.5312 147.547 14.7188 147.359 14.2188C147.016 13.375 146.344 12.9531 145.344 12.9531C144.344 12.9531 143.641 13.3281 143.234 14.0781C142.922 14.6406 142.766 15.4688 142.766 16.5625V23.5H138.453V9.48438H142.625V11.4062H142.672C142.984 10.7812 143.484 10.2656 144.172 9.85938C144.922 9.35938 145.797 9.10938 146.797 9.10938C148.828 9.10938 150.25 9.75 151.062 11.0312C151.688 12.0625 152 13.6562 152 15.8125V23.5Z" fill="#B2B2B2"/>
<path d="M215.531 8.5L204.562 1.1875C204.188 0.9375 203.812 0.9375 203.438 1.1875L192.469 8.5C192.156 8.6875 192 8.96875 192 9.34375V16.6562C192 17.0312 192.156 17.3125 192.469 17.5L203.438 24.8125C203.812 25.0625 204.188 25.0625 204.562 24.8125L215.531 17.5C215.844 17.3125 216 17.0312 216 16.6562V9.34375C216 8.96875 215.844 8.6875 215.531 8.5ZM205.031 3.95312L213.094 9.34375L209.484 11.7344L205.031 8.78125V3.95312ZM202.969 3.95312V8.78125L198.516 11.7344L194.906 9.34375L202.969 3.95312ZM194.062 11.2656L196.641 13L194.062 14.7344V11.2656ZM202.969 22.0469L194.906 16.6562L198.516 14.2656L202.969 17.2188V22.0469ZM204 15.4375L200.344 13L204 10.5625L207.656 13L204 15.4375ZM205.031 22.0469V17.2188L209.484 14.2656L213.094 16.6562L205.031 22.0469ZM213.938 14.7344L211.359 13L213.938 11.2656V14.7344Z" fill="#B2B2B2"/>
</svg>
